<svg width="120" height="120" xmlns="http://www.w3.org/2000/svg">
  <path fill="url(#paint0_linear)" fill-rule="evenodd" d="M60 120C26.863 120 0 93.137 0 60S26.863 0 60 0s60 26.863 60 60-26.863 60-60 60zm0-12c26.51 0 48-21.49 48-48S86.51 12 60 12 12 33.49 12 60s21.49 48 48 48zM49.16 67.796l6.152-2.58a7 7 0 0 0 11.665-4.893l6.149-2.58a1.999 1.999 0 0 1 2.772 1.803l.001 33.61a2 2 0 0 1-3.43 1.439L48.502 71.037a2 2 0 0 1 .658-3.24zm21.646-15.59l-6.153 2.582a7 7 0 0 0-11.665 4.893L46.84 62.26a1.999 1.999 0 0 1-2.772-1.802l-.001-33.61a2 2 0 0 1 3.43-1.44l23.968 23.558a2 2 0 0 1-.658 3.24z" clip-rule="evenodd"/>
  <defs>
    <linearGradient id="paint0_linear" x1="142.253" x2="44.805" y1="31.454" y2="184.17" gradientUnits="userSpaceOnUse">
      <stop stop-color="#FFB45B"/>
      <stop offset="1" stop-color="#FF8A00"/>
    </linearGradient>
  </defs>
</svg>